<svg viewBox="0 0 267.554 109.075" xml:space="preserve" xmlns="http://www.w3.org/2000/svg"><defs><clipPath clipPathUnits="userSpaceOnUse" id="a"><path d="M0 1080h1080V0H0Z"/></clipPath></defs><g clip-path="url(#a)" transform="matrix(.35278 0 0 -.35278 -55.64 245.525)"><path d="M0 0v17.179h-15.641v8.782h25.897V.705c0-11.09-6.474-18.269-17.051-18.269-3.589 0-9.102.513-12.628 1.154v9.487c4.103-.898 8.59-1.347 11.026-1.347C-3.397-8.27 0-6.346 0 0" style="fill:navy;fill-opacity:1;fill-rule:nonzero;stroke:none" transform="translate(472.538 556.987)"/><path d="M0 0c5.705 0 7.18 1.09 7.18 3.461v1.924c-3.334.128-5.962.192-7.18.192-2.756 0-4.23-1.026-4.23-2.821C-4.23.833-2.756 0 0 0m17.372 10.385V-7.564H7.18v2.692h-.321c-2.051-2.5-5.192-3.269-8.718-3.269-8.333 0-12.5 3.526-12.5 10.577 0 6.667 4.551 9.936 13.782 9.936 1.41 0 4.103 0 7.757-.128v.512c0 2.821-1.41 3.783-7.372 3.783-3.013 0-6.602-.449-10.321-1.154v8.205c4.808.961 8.013 1.474 11.988 1.474 11.922 0 15.897-4.231 15.897-14.679" style="fill:navy;fill-opacity:1;fill-rule:nonzero;stroke:none" transform="translate(503.564 547.564)"/><path d="M0 0v-24.103h2.436l8.141 10.642H22.82L11.026-28.205l12.82-17.308h-12.82L2.115-32.564H0v-12.949h-10.128V0Z" style="fill:navy;fill-opacity:1;fill-rule:nonzero;stroke:none" transform="translate(537.026 585.513)"/><path d="M0 0c5.705 0 7.18 1.09 7.18 3.461v1.924c-3.334.128-5.962.192-7.18.192-2.756 0-4.23-1.026-4.23-2.821C-4.23.833-2.756 0 0 0m17.372 10.385V-7.564H7.18v2.692h-.321c-2.051-2.5-5.192-3.269-8.718-3.269-8.333 0-12.5 3.526-12.5 10.577 0 6.667 4.551 9.936 13.782 9.936 1.41 0 4.103 0 7.757-.128v.512c0 2.821-1.41 3.783-7.372 3.783-3.013 0-6.602-.449-10.321-1.154v8.205c4.808.961 8.013 1.474 11.988 1.474 11.922 0 15.897-4.231 15.897-14.679" style="fill:navy;fill-opacity:1;fill-rule:nonzero;stroke:none" transform="translate(577.797 547.564)"/><path d="M0 0v-8.525c-1.731.384-3.718.512-4.68.512-5.064 0-6.859-1.666-6.859-5.512v-18.654h-10.128V-.128h10.128v-2.436h.513C-9.295-.897-6.987.449-3.846.449-2.5.449-1.218.321 0 0" style="fill:navy;fill-opacity:1;fill-rule:nonzero;stroke:none" transform="translate(623.183 572.18)"/><path d="M0 0v-7.82c-2.628-.898-6.154-1.475-9.294-1.475-8.975 0-12.052 2.821-12.052 12.308v11.923h-4.038v8.397h4.038v8.334h10.064v-8.334H-.128v-8.397h-11.154V3.526C-11.282.641-10-.833-7.243-.833c2.5 0 4.359.256 7.243.833" style="fill:navy;fill-opacity:1;fill-rule:nonzero;stroke:none" transform="translate(652.286 548.718)"/><path d="M0 0c5.705 0 7.18 1.09 7.18 3.461v1.924c-3.334.128-5.962.192-7.18.192-2.756 0-4.23-1.026-4.23-2.821C-4.23.833-2.756 0 0 0m17.372 10.385V-7.564H7.18v2.692h-.321c-2.051-2.5-5.192-3.269-8.718-3.269-8.333 0-12.5 3.526-12.5 10.577 0 6.667 4.551 9.936 13.782 9.936 1.41 0 4.103 0 7.757-.128v.512c0 2.821-1.41 3.783-7.372 3.783-3.013 0-6.602-.449-10.321-1.154v8.205c4.808.961 8.013 1.474 11.988 1.474 11.922 0 15.897-4.231 15.897-14.679" style="fill:navy;fill-opacity:1;fill-rule:nonzero;stroke:none" transform="translate(671.068 547.564)"/><path d="M0 0c6.603 0 9.872 4.359 9.872 12.692 0 8.397-3.269 12.692-9.872 12.692h-9.744V0Zm20.577 12.692c0-14.359-7.052-21.474-21.154-21.474h-19.487v42.948H-.577c14.102 0 21.154-7.115 21.154-21.474" style="fill:navy;fill-opacity:1;fill-rule:nonzero;stroke:none" transform="translate(730.364 548.782)"/><path d="M0 0c-.128 2.885-1.987 4.808-5.384 4.808-3.719 0-5.513-1.346-6.09-4.808zm6.539-7.051h-18.013c.705-3.782 2.884-5.064 7.692-5.064 3.269 0 9.038.705 11.731 1.09v-7.757c-5-.961-9.295-1.474-12.757-1.474-11.73 0-17.051 4.551-17.051 16.218v.769c0 11.474 5.449 16.218 16.475 16.218 10.769 0 15.64-5.577 15.64-14.872 0-4.936-.576-5.128-3.717-5.128" style="fill:navy;fill-opacity:1;fill-rule:nonzero;stroke:none" transform="translate(777.866 559.68)"/><path d="M0 0c0 7.115 5 10.384 15.128 10.384 4.808 0 8.141-.512 12.5-1.474V1.025c-3.398.642-6.603 1.09-11.41 1.09-5.129 0-6.09-.448-6.09-1.666 0-1.475 1.923-1.924 5.513-2.308C22.051-2.5 30-3.846 30-12.051c0-7.5-5.706-10.77-16.154-10.77-4.808 0-8.269.449-12.949 1.218v7.949c4.616-.577 8.206-.833 12.308-.833 4.487 0 6.667.448 6.667 1.666 0 1.282-1.154 1.475-5.385 2.051C9.551-10.064 0-9.487 0 0" style="fill:navy;fill-opacity:1;fill-rule:nonzero;stroke:none" transform="translate(793.829 562.244)"/><path d="M839.919 540h-10.128v32.051h10.128zm-10.961 41.282c0 3.333 2.051 5.448 5.897 5.448 3.718 0 5.897-2.051 5.897-5.448v-.193c0-3.205-2.115-5.256-5.897-5.256s-5.897 2.051-5.897 5.256z" style="fill:navy;fill-opacity:1;fill-rule:nonzero;stroke:none"/><path d="M0 0c4.551 0 6.282 1.859 6.282 7.949v.256c0 6.09-1.731 7.949-6.282 7.949-4.68 0-6.603-1.859-6.603-7.949v-.256C-6.603 1.859-4.68 0 0 0m-.706-21.09c-3.012 0-5.769.257-9.999.834v8.012c2.628-.32 6.154-.769 9.038-.769 5.705 0 7.949 1.41 7.949 5.064v2.308h-.449c-1.539-1.09-4.039-2.885-8.974-2.885-8.782 0-13.526 4.487-13.526 16.218v.769c0 11.731 4.744 16.218 13.526 16.218 4.935 0 7.435-1.795 8.974-2.884h.449v2.308H16.41V-5.705c0-10.898-4.038-15.385-17.116-15.385" style="fill:navy;fill-opacity:1;fill-rule:nonzero;stroke:none" transform="translate(862.1 547.949)"/><path d="M0 0v-2.436h.513C2.692-.77 5.513.577 9.487.577c7.436 0 11.346-4.295 11.346-13.718v-18.91H10.769v18.654c0 3.781-1.539 5.448-5.384 5.448C1.41-7.949 0-9.616 0-13.397v-18.654h-10.128V0Z" style="fill:navy;fill-opacity:1;fill-rule:nonzero;stroke:none" transform="translate(895.305 572.051)"/><path d="M0 0c-9.167 0-13.654-3.59-13.654-12.5 0-9.038 4.487-13.013 12.436-13.013 7.115 0 11.09.834 15 1.731v-9.423C10.064-34.23 6.41-34.808-.705-34.808c-15.641 0-23.59 6.667-23.59 22.116 0 15.705 7.949 21.987 24.808 21.987 5.384 0 10.448-.641 13.269-1.731v-9.615C10.961-.897 5.513 0 0 0" style="fill:navy;fill-opacity:1;fill-rule:nonzero;stroke:none" transform="translate(477.73 506.627)"/><path d="M0 0c4.615 0 6.41 1.859 6.41 7.949v.256c0 6.09-1.795 7.949-6.41 7.949-4.551 0-6.474-1.795-6.474-7.949v-.256C-6.474 1.795-4.551 0 0 0m0 24.679c11.218 0 16.475-4.807 16.475-16.218v-.769C16.475-3.718 11.218-8.526 0-8.526c-11.089 0-16.603 4.808-16.603 16.218v.769c0 11.411 5.514 16.218 16.603 16.218" style="fill:navy;fill-opacity:1;fill-rule:nonzero;stroke:none" transform="translate(513.052 480.345)"/><path d="M0 0v-2.436h.513C2.692-.77 5.513.577 9.487.577c7.436 0 11.346-4.295 11.346-13.718v-18.91H10.769v18.654c0 3.781-1.539 5.448-5.384 5.448C1.41-7.949 0-9.616 0-13.397v-18.654h-10.128V0Z" style="fill:navy;fill-opacity:1;fill-rule:nonzero;stroke:none" transform="translate(545.553 504.447)"/><path d="M0 0c0 7.115 5 10.384 15.128 10.384 4.808 0 8.141-.512 12.5-1.474V1.025c-3.398.642-6.603 1.09-11.41 1.09-5.129 0-6.09-.448-6.09-1.666 0-1.475 1.923-1.924 5.513-2.308C22.051-2.5 30-3.846 30-12.051c0-7.5-5.706-10.77-16.154-10.77-4.808 0-8.269.449-12.949 1.218v7.949c4.616-.577 8.206-.833 12.308-.833 4.487 0 6.667.448 6.667 1.666 0 1.282-1.154 1.475-5.385 2.051C9.551-10.064 0-9.487 0 0" style="fill:navy;fill-opacity:1;fill-rule:nonzero;stroke:none" transform="translate(571.836 494.64)"/><path d="M0 0v2.436h-.513c-2.179-1.667-5-3.013-8.974-3.013-7.436 0-11.346 4.295-11.346 13.718v18.91h10.064V13.397c0-3.782 1.539-5.448 5.385-5.448C-1.41 7.949 0 9.615 0 13.397v18.654h10.128V0Z" style="fill:navy;fill-opacity:1;fill-rule:nonzero;stroke:none" transform="translate(627.734 472.396)"/><path d="M0 0v-8.333a30.275 30.275 0 0 0-5.32-.449c-9.552 0-11.795 3.526-11.795 13.654v32.436h10.128V2.82c0-1.923.384-3.14 2.564-3.14.833 0 3.077.128 4.423.32" style="fill:navy;fill-opacity:1;fill-rule:nonzero;stroke:none" transform="translate(661.646 480.601)"/><path d="M0 0v-7.82c-2.628-.898-6.154-1.475-9.294-1.475-8.975 0-12.052 2.821-12.052 12.308v11.923h-4.038v8.397h4.038v8.334h10.064v-8.334H-.128v-8.397h-11.154V3.526C-11.282.641-10-.833-7.243-.833c2.5 0 4.359.256 7.243.833" style="fill:navy;fill-opacity:1;fill-rule:nonzero;stroke:none" transform="translate(687.673 481.114)"/><path d="M0 0c5.705 0 7.18 1.09 7.18 3.461v1.924c-3.334.128-5.962.192-7.18.192-2.756 0-4.23-1.026-4.23-2.821C-4.23.833-2.756 0 0 0m17.372 10.385V-7.564H7.18v2.692h-.321c-2.051-2.5-5.192-3.269-8.718-3.269-8.333 0-12.5 3.526-12.5 10.577 0 6.667 4.551 9.936 13.782 9.936 1.41 0 4.103 0 7.757-.128v.512c0 2.821-1.41 3.783-7.372 3.783-3.013 0-6.602-.449-10.321-1.154v8.205c4.808.961 8.013 1.474 11.988 1.474 11.922 0 15.897-4.231 15.897-14.679" style="fill:navy;fill-opacity:1;fill-rule:nonzero;stroke:none" transform="translate(706.456 479.96)"/><path d="M0 0v-2.436h.513C2.692-.77 5.513.577 9.487.577c7.436 0 11.346-4.295 11.346-13.718v-18.91H10.769v18.654c0 3.781-1.539 5.448-5.384 5.448C1.41-7.949 0-9.616 0-13.397v-18.654h-10.128V0Z" style="fill:navy;fill-opacity:1;fill-rule:nonzero;stroke:none" transform="translate(740.303 504.447)"/><path d="M0 0v-7.82c-2.628-.898-6.154-1.475-9.294-1.475-8.975 0-12.052 2.821-12.052 12.308v11.923h-4.038v8.397h4.038v8.334h10.064v-8.334H-.128v-8.397h-11.154V3.526C-11.282.641-10-.833-7.243-.833c2.5 0 4.359.256 7.243.833" style="fill:navy;fill-opacity:1;fill-rule:nonzero;stroke:none" transform="translate(789.918 481.114)"/><path d="M0 0c-2.401 0-3.543-.689-3.543-1.968 0-1.122.847-1.693 3.366-2.185C3.701-4.921 5-5.964 5-8.09c0-2.46-1.732-3.76-5.453-3.76-1.594 0-3.326.237-4.783.709v1.752a15.768 15.768 0 0 1 4.744-.768c2.441 0 3.524.689 3.524 1.969 0 1.141-.866 1.692-3.485 2.204-3.798.729-5.058 1.792-5.058 3.878 0 2.579 1.909 3.799 5.452 3.799 1.575 0 3.091-.236 4.37-.709V-.768A12.379 12.379 0 0 1 0 0" style="fill:red;fill-opacity:1;fill-rule:nonzero;stroke:none" transform="translate(457.13 451.052)"/><path d="M0 0v-5.098h.138c.59.767 1.515 1.141 2.992 1.141 2.736 0 3.976-1.299 3.976-4.212v-5.807H5.314v5.728c0 1.91-.807 2.736-2.657 2.736S0-6.338 0-8.248v-5.728h-1.792V0Z" style="fill:red;fill-opacity:1;fill-rule:nonzero;stroke:none" transform="translate(465.835 453.356)"/><path d="M476.783 439.38h-1.791v9.842h1.791zm-2.047 12.853c0 .67.393 1.083 1.141 1.083s1.142-.413 1.142-1.083v-.039c0-.65-.394-1.063-1.142-1.063-.748 0-1.141.413-1.141 1.063z" style="fill:red;fill-opacity:1;fill-rule:nonzero;stroke:none"/><path d="M0 0c2.086 0 2.992 1.063 2.992 3.484v.118c0 2.421-.906 3.484-2.992 3.484s-2.953-1.063-2.953-3.484v-.118C-2.953 1.063-2.086 0 0 0m.295-1.555c-1.653 0-2.421.472-3.11 1.26h-.138v-4.823h-1.791V8.464h1.791V7.381h.138c.689.788 1.457 1.26 3.11 1.26 3.051 0 4.488-1.594 4.488-4.98v-.236c0-3.386-1.437-4.98-4.488-4.98" style="fill:red;fill-opacity:1;fill-rule:nonzero;stroke:none" transform="translate(483.732 440.758)"/><path d="M0 0c2.913 0 4.389 1.692 4.389 4.98 0 3.307-1.476 4.98-4.389 4.98h-3.464V0Zm6.279 4.98C6.279.571 4.192-1.614 0-1.614h-5.315v13.188H0c4.192 0 6.279-2.185 6.279-6.594" style="fill:red;fill-opacity:1;fill-rule:nonzero;stroke:none" transform="translate(500.685 440.994)"/><path d="M0 0c-.02 1.89-.866 2.894-2.697 2.894-1.83 0-2.677-.886-2.814-2.894Zm1.004-1.496h-6.496c.197-1.889 1.181-2.696 3.248-2.696.945 0 2.402.177 3.287.393v-1.496c-1.181-.295-2.401-.453-3.424-.453-3.367 0-4.941 1.615-4.941 4.98v.237c0 3.326 1.515 4.98 4.625 4.98 3.032 0 4.489-1.713 4.489-4.744 0-.906-.138-1.201-.788-1.201" style="fill:red;fill-opacity:1;fill-rule:nonzero;stroke:none" transform="translate(516.043 444.95)"/><path d="M0 0c0 1.929 1.417 2.834 4.35 2.834 1.201 0 2.244-.157 3.307-.452V.886a13.104 13.104 0 0 1-3.248.393c-1.929 0-2.617-.393-2.617-1.18 0-1.044 1.239-1.241 2.361-1.457 1.792-.335 4.035-.709 4.035-3.11 0-1.988-1.554-2.894-4.546-2.894-1.241 0-2.343.158-3.465.453v1.496a14.502 14.502 0 0 1 3.386-.394c2.027 0 2.834.394 2.834 1.241 0 .944-.984 1.161-2.48 1.456C2.343-2.795 0-2.5 0 0" style="fill:red;fill-opacity:1;fill-rule:nonzero;stroke:none" transform="translate(519.669 446.565)"/><path d="M531.679 439.38h-1.791v9.842h1.791zm-2.047 12.853c0 .67.394 1.083 1.142 1.083.748 0 1.142-.413 1.142-1.083v-.039c0-.65-.394-1.063-1.142-1.063-.748 0-1.142.413-1.142 1.063z" style="fill:red;fill-opacity:1;fill-rule:nonzero;stroke:none"/><path d="M0 0c2.086 0 2.953 1.063 2.953 3.484v.118c0 2.421-.867 3.484-2.953 3.484s-2.992-1.063-2.992-3.484v-.118C-2.992 1.063-2.086 0 0 0m-.02-5.433c-1.003 0-2.027.119-3.11.354v1.496a16.89 16.89 0 0 1 2.953-.295c2.283 0 3.13.788 3.13 2.559v1.024h-.138c-.689-.788-1.457-1.26-3.11-1.26-3.051 0-4.488 1.594-4.488 4.98v.236c0 3.386 1.437 4.98 4.488 4.98 1.653 0 2.421-.472 3.11-1.26h.138v1.083h1.791v-9.33c0-3.11-1.319-4.567-4.764-4.567" style="fill:red;fill-opacity:1;fill-rule:nonzero;stroke:none" transform="translate(538.334 440.758)"/><path d="M0 0v-.964h.138C.728-.197 1.653.177 3.13.177c2.736 0 3.976-1.299 3.976-4.212v-5.807H5.314v5.728c0 1.909-.807 2.736-2.657 2.736S0-2.205 0-4.114v-5.728h-1.792V0Z" style="fill:red;fill-opacity:1;fill-rule:nonzero;stroke:none" transform="translate(547.058 449.222)"/><path d="M0 0c2.047 0 3.012.925 3.012 2.775v.453c-.886.059-1.85.099-2.421.099-2.028 0-2.835-.493-2.835-1.713C-2.244.492-1.575 0 0 0m4.803 4.37v-5.708H3.012v1.023h-.118c-.67-.807-1.654-1.201-3.209-1.201-2.441 0-3.72 1.004-3.72 3.13 0 2.146 1.319 3.091 4.527 3.091.492 0 1.319-.02 2.52-.099v.256c0 1.732-.729 2.263-2.717 2.263-.984 0-2.106-.137-3.208-.393v1.496c1.161.295 2.224.453 3.366.453 3.13 0 4.35-1.221 4.35-4.311" style="fill:red;fill-opacity:1;fill-rule:nonzero;stroke:none" transform="translate(564.502 440.718)"/><path d="M0 0v-.964h.138C.728-.197 1.653.177 3.13.177c2.736 0 3.976-1.299 3.976-4.212v-5.807H5.314v5.728c0 1.909-.807 2.736-2.657 2.736S0-2.205 0-4.114v-5.728h-1.792V0Z" style="fill:red;fill-opacity:1;fill-rule:nonzero;stroke:none" transform="translate(573.226 449.222)"/><path d="M0 0c2.086 0 2.953 1.063 2.953 3.484v.118c0 2.421-.867 3.484-2.953 3.484s-2.992-1.063-2.992-3.484v-.118C-2.992 1.063-2.086 0 0 0m-.295 8.641c1.653 0 2.421-.472 3.11-1.26h.138v5.217h1.791V-1.378H2.953v1.083h-.138c-.689-.788-1.457-1.26-3.11-1.26-3.051 0-4.488 1.594-4.488 4.98v.236c0 3.386 1.437 4.98 4.488 4.98" style="fill:red;fill-opacity:1;fill-rule:nonzero;stroke:none" transform="translate(586.812 440.758)"/><path d="M0 0v-1.614h-7.775v-4.173h7.46v-1.614h-7.46v-2.46c0-.985.669-1.713 1.594-1.713H0v-1.614h-6.653c-1.713 0-2.972 1.279-2.972 3.012V0Z" style="fill:red;fill-opacity:1;fill-rule:nonzero;stroke:none" transform="translate(608.292 452.568)"/><path d="M0 0v-.964h.138C.728-.197 1.653.177 3.13.177c2.736 0 3.976-1.299 3.976-4.212v-5.807H5.314v5.728c0 1.909-.807 2.736-2.657 2.736S0-2.205 0-4.114v-5.728h-1.792V0Z" style="fill:red;fill-opacity:1;fill-rule:nonzero;stroke:none" transform="translate(612.312 449.222)"/><path d="M0 0c2.086 0 2.953 1.063 2.953 3.484v.118c0 2.421-.867 3.484-2.953 3.484s-2.992-1.063-2.992-3.484v-.118C-2.992 1.063-2.086 0 0 0m-.02-5.433c-1.003 0-2.027.119-3.11.354v1.496a16.89 16.89 0 0 1 2.953-.295c2.283 0 3.13.788 3.13 2.559v1.024h-.138c-.689-.788-1.457-1.26-3.11-1.26-3.051 0-4.488 1.594-4.488 4.98v.236c0 3.386 1.437 4.98 4.488 4.98 1.653 0 2.421-.472 3.11-1.26h.138v1.083h1.791v-9.33c0-3.11-1.319-4.567-4.764-4.567" style="fill:red;fill-opacity:1;fill-rule:nonzero;stroke:none" transform="translate(625.818 440.758)"/><path d="M634.444 439.38h-1.791v9.842h1.791zm-2.047 12.853c0 .67.394 1.083 1.142 1.083.748 0 1.141-.413 1.141-1.083v-.039c0-.65-.393-1.063-1.141-1.063s-1.142.413-1.142 1.063z" style="fill:red;fill-opacity:1;fill-rule:nonzero;stroke:none"/><path d="M0 0v-.964h.138C.728-.197 1.653.177 3.13.177c2.736 0 3.976-1.299 3.976-4.212v-5.807H5.314v5.728c0 1.909-.807 2.736-2.657 2.736S0-2.205 0-4.114v-5.728h-1.792V0Z" style="fill:red;fill-opacity:1;fill-rule:nonzero;stroke:none" transform="translate(638.44 449.222)"/><path d="M0 0c-.02 1.89-.866 2.894-2.696 2.894-1.831 0-2.678-.886-2.815-2.894Zm1.004-1.496h-6.496c.197-1.889 1.181-2.696 3.248-2.696.945 0 2.402.177 3.287.393v-1.496c-1.181-.295-2.401-.453-3.425-.453-3.366 0-4.94 1.615-4.94 4.98v.237c0 3.326 1.515 4.98 4.626 4.98 3.031 0 4.488-1.713 4.488-4.744 0-.906-.138-1.201-.788-1.201" style="fill:red;fill-opacity:1;fill-rule:nonzero;stroke:none" transform="translate(654.546 444.95)"/><path d="M0 0c-.02 1.89-.866 2.894-2.696 2.894-1.831 0-2.678-.886-2.815-2.894Zm1.004-1.496h-6.496c.197-1.889 1.181-2.696 3.248-2.696.945 0 2.402.177 3.287.393v-1.496c-1.181-.295-2.401-.453-3.425-.453-3.366 0-4.94 1.615-4.94 4.98v.237c0 3.326 1.515 4.98 4.626 4.98 3.031 0 4.488-1.713 4.488-4.744 0-.906-.138-1.201-.788-1.201" style="fill:red;fill-opacity:1;fill-rule:nonzero;stroke:none" transform="translate(665.415 444.95)"/><path d="M0 0v-1.477c-.492.04-.925.06-1.26.06-1.772 0-2.559-.827-2.559-2.736v-5.728H-5.61V-.04h1.791v-.964h.138c.492.768 1.24 1.142 2.46 1.142C-.807.138-.414.098 0 0" style="fill:red;fill-opacity:1;fill-rule:nonzero;stroke:none" transform="translate(674.848 449.261)"/><path d="M678.314 439.38h-1.791v9.842h1.791zm-2.047 12.853c0 .67.394 1.083 1.142 1.083.748 0 1.141-.413 1.141-1.083v-.039c0-.65-.393-1.063-1.141-1.063s-1.142.413-1.142 1.063z" style="fill:red;fill-opacity:1;fill-rule:nonzero;stroke:none"/><path d="M0 0v-.964h.138C.728-.197 1.653.177 3.13.177c2.736 0 3.976-1.299 3.976-4.212v-5.807H5.314v5.728c0 1.909-.807 2.736-2.657 2.736S0-2.205 0-4.114v-5.728h-1.792V0Z" style="fill:red;fill-opacity:1;fill-rule:nonzero;stroke:none" transform="translate(682.312 449.222)"/><path d="M0 0c2.086 0 2.953 1.063 2.953 3.484v.118c0 2.421-.867 3.484-2.953 3.484s-2.992-1.063-2.992-3.484v-.118C-2.992 1.063-2.086 0 0 0m-.02-5.433c-1.003 0-2.027.119-3.11.354v1.496a16.89 16.89 0 0 1 2.953-.295c2.283 0 3.13.788 3.13 2.559v1.024h-.138c-.689-.788-1.457-1.26-3.11-1.26-3.051 0-4.488 1.594-4.488 4.98v.236c0 3.386 1.437 4.98 4.488 4.98 1.653 0 2.421-.472 3.11-1.26h.138v1.083h1.791v-9.33c0-3.11-1.319-4.567-4.764-4.567" style="fill:red;fill-opacity:1;fill-rule:nonzero;stroke:none" transform="translate(695.818 440.758)"/><path d="M0 0c-2.401 0-3.543-.689-3.543-1.968 0-1.122.847-1.693 3.366-2.185C3.701-4.921 5-5.964 5-8.09c0-2.46-1.732-3.76-5.453-3.76-1.594 0-3.326.237-4.783.709v1.752a15.768 15.768 0 0 1 4.744-.768c2.441 0 3.524.689 3.524 1.969 0 1.141-.866 1.692-3.485 2.204-3.798.729-5.058 1.792-5.058 3.878 0 2.579 1.909 3.799 5.452 3.799 1.575 0 3.091-.236 4.37-.709V-.768A12.379 12.379 0 0 1 0 0" style="fill:red;fill-opacity:1;fill-rule:nonzero;stroke:none" transform="translate(712.535 451.052)"/><path d="M0 0c2.086 0 2.992 1.063 2.992 3.484v.118c0 2.421-.906 3.484-2.992 3.484s-2.953-1.063-2.953-3.484v-.118C-2.953 1.063-2.086 0 0 0m.295-1.555c-1.653 0-2.421.472-3.11 1.26h-.138v-4.823h-1.791V8.464h1.791V7.381h.138c.689.788 1.457 1.26 3.11 1.26 3.051 0 4.488-1.594 4.488-4.98v-.236c0-3.386-1.437-4.98-4.488-4.98" style="fill:red;fill-opacity:1;fill-rule:nonzero;stroke:none" transform="translate(724.192 440.758)"/><path d="M0 0c-.02 1.89-.866 2.894-2.696 2.894-1.831 0-2.678-.886-2.815-2.894Zm1.004-1.496h-6.496c.197-1.889 1.181-2.696 3.248-2.696.945 0 2.402.177 3.287.393v-1.496c-1.181-.295-2.401-.453-3.425-.453-3.366 0-4.94 1.615-4.94 4.98v.237c0 3.326 1.515 4.98 4.626 4.98 3.031 0 4.488-1.713 4.488-4.744 0-.906-.138-1.201-.788-1.201" style="fill:red;fill-opacity:1;fill-rule:nonzero;stroke:none" transform="translate(738.014 444.95)"/><path d="M0 0c1.004 0 2.106-.157 3.169-.453v-1.496c-.905.237-2.185.394-3.011.394-2.205 0-3.169-1.043-3.169-3.484v-.118c0-2.441.964-3.484 3.169-3.484.826 0 2.106.157 3.011.393v-1.496A12.086 12.086 0 0 0 0-10.196c-3.228 0-4.803 1.633-4.803 4.98v.236C-4.803-1.634-3.228 0 0 0" style="fill:red;fill-opacity:1;fill-rule:nonzero;stroke:none" transform="translate(746.363 449.399)"/><path d="M753.078 439.38h-1.791v9.842h1.791zm-2.047 12.853c0 .67.394 1.083 1.142 1.083.748 0 1.141-.413 1.141-1.083v-.039c0-.65-.393-1.063-1.141-1.063s-1.142.413-1.142 1.063z" style="fill:red;fill-opacity:1;fill-rule:nonzero;stroke:none"/><path d="M0 0c2.047 0 3.012.925 3.012 2.775v.453c-.886.059-1.85.099-2.421.099-2.028 0-2.835-.493-2.835-1.713C-2.244.492-1.575 0 0 0m4.803 4.37v-5.708H3.012v1.023h-.118c-.67-.807-1.654-1.201-3.209-1.201-2.441 0-3.72 1.004-3.72 3.13 0 2.146 1.319 3.091 4.527 3.091.492 0 1.319-.02 2.52-.099v.256c0 1.732-.729 2.263-2.717 2.263-.984 0-2.106-.137-3.208-.393v1.496c1.161.295 2.224.453 3.366.453 3.13 0 4.35-1.221 4.35-4.311" style="fill:red;fill-opacity:1;fill-rule:nonzero;stroke:none" transform="translate(758.985 440.718)"/><path d="M0 0v-1.477a7.585 7.585 0 0 0-1.496-.137c-2.204 0-2.815.885-2.815 3.445v10.708h1.791V1.831c0-1.536.178-1.89 1.182-1.89.315 0 .885.019 1.338.059" style="fill:red;fill-opacity:1;fill-rule:nonzero;stroke:none" transform="translate(770.13 440.817)"/><path d="M773.438 439.38h-1.791v9.842h1.791zm-2.047 12.853c0 .67.394 1.083 1.142 1.083.748 0 1.141-.413 1.141-1.083v-.039c0-.65-.393-1.063-1.141-1.063s-1.142.413-1.142 1.063z" style="fill:red;fill-opacity:1;fill-rule:nonzero;stroke:none"/><path d="M0 0c0 1.929 1.417 2.834 4.35 2.834 1.201 0 2.244-.157 3.307-.452V.886a13.104 13.104 0 0 1-3.248.393c-1.929 0-2.617-.393-2.617-1.18 0-1.044 1.239-1.241 2.361-1.457 1.792-.335 4.035-.709 4.035-3.11 0-1.988-1.554-2.894-4.546-2.894-1.241 0-2.343.158-3.465.453v1.496a14.502 14.502 0 0 1 3.386-.394c2.027 0 2.834.394 2.834 1.241 0 .944-.984 1.161-2.48 1.456C2.343-2.795 0-2.5 0 0" style="fill:red;fill-opacity:1;fill-rule:nonzero;stroke:none" transform="translate(775.447 446.565)"/><path d="M0 0v-1.457c-.964-.177-1.457-.295-2.205-.295-2.302 0-3.129.827-3.129 3.425v5.059h-1.437v1.535h1.437v2.559h1.791V8.267h3.445V6.732h-3.445v-4.98c0-1.594.335-1.949 1.653-1.949.571 0 1.122.059 1.89.197" style="fill:red;fill-opacity:1;fill-rule:nonzero;stroke:none" transform="translate(791.71 440.955)"/><path d="M0 0v.004L-.004 0Z" style="fill:navy;fill-opacity:1;fill-rule:nonzero;stroke:none" transform="translate(400.857 457.04)"/><path d="m0 0-23.284 13.442v.003h-.004l-23.285 13.446-23.288 13.445v-193.814l46.577 26.891L0-114.945v56.89L-23.288-71.5l-11.644-6.724 11.644-2.679v-18.798l-23.285-13.445V.004l23.285-11.044v-16.098l15.308 8.839.386-.182-.157.316L0-13.693z" style="fill:navy;fill-opacity:1;fill-rule:nonzero;stroke:none" transform="translate(400.857 570.186)"/><path d="M0 0v-113.149l-23.288 13.445v18.798l11.644 2.678-11.644 6.724-23.288 13.446.003-28.201v-26.887l23.285-13.445 46.576-26.89V40.332l-46.576-26.89z" style="fill:navy;fill-opacity:1;fill-rule:nonzero;stroke:none" transform="translate(204.294 570.19)"/><path d="m0 0 .002.001-34.872 20.133Z" style="fill:navy;fill-opacity:1;fill-rule:nonzero;stroke:none" transform="translate(279.288 386.786)"/><path d="M0 0c7.414 0 13.424-6.01 13.424-13.424S7.414-26.849 0-26.849s-13.424 6.011-13.424 13.425C-13.424-6.01-7.414 0 0 0m34.928-13.424C34.928 5.866 19.29 21.504 0 21.504S-34.928 5.866-34.928-13.424c0-13.138 7.257-24.576 17.978-30.539l-17.985-10.383v-213.17l.061-.036 34.872-20.133 34.93 20.164v25.203l-23.283-13.45-11.649-6.725-11.641 6.725v187.994l11.641 6.717L11.63-54.34l.015.008v-182.051l23.283 13.449v168.592L16.95-43.963C27.671-38 34.928-26.562 34.928-13.424" style="fill:navy;fill-opacity:1;fill-rule:nonzero;stroke:none" transform="translate(279.291 674.471)"/></g></svg>